<?xml version="1.0" encoding="UTF-8" standalone="no" ?>
<!DOCTYPE svg PUBLIC "-//W3C//DTD SVG 1.1//EN" "http://www.w3.org/Graphics/SVG/1.1/DTD/svg11.dtd">
<svg xmlns="http://www.w3.org/2000/svg" xmlns:xlink="http://www.w3.org/1999/xlink" version="1.1" width="1080" height="1080" viewBox="0 0 1080 1080" xml:space="preserve">
<desc>Created with Fabric.js 5.2.4</desc>
<defs>
</defs>
<g transform="matrix(1 0 0 1 540 540)" id="6c69df9b-624f-4b65-b3ba-cd6b8719e442"  >
<rect style="stroke: none; stroke-width: 1; stroke-dasharray: none; stroke-linecap: butt; stroke-dashoffset: 0; stroke-linejoin: miter; stroke-miterlimit: 4; fill: rgb(255,255,255); fill-rule: nonzero; opacity: 1; visibility: hidden;" vector-effect="non-scaling-stroke"  x="-540" y="-540" rx="0" ry="0" width="1080" height="1080" />
</g>
<g transform="matrix(1 0 0 1 540 540)" id="292093b8-6795-4192-af7e-06ad3831f107"  >
</g>
<g transform="matrix(4.48 0 0 4.48 540 611.44)"  >
<path style="stroke: none; stroke-width: 1; stroke-dasharray: none; stroke-linecap: butt; stroke-dashoffset: 0; stroke-linejoin: miter; stroke-miterlimit: 4; fill: rgb(0,0,0); fill-rule: nonzero; opacity: 1;" vector-effect="non-scaling-stroke"  transform=" translate(-58.03, -12.99)" d="M 9.88 15.32 L 10.780000000000001 13.76 L 13.500000000000002 18.439999999999998 L 15.300000000000002 18.439999999999998 C 14.900000000000002 17.799999999999997 11.100000000000001 11.299999999999997 10.780000000000003 10.659999999999997 L 6.860000000000003 17.459999999999997 L 5.400000000000003 19.999999999999996 L 2.6645352591003757e-15 19.999999999999996 C 0.30000000000000265 19.499999999999996 2.3200000000000025 15.979999999999997 4.2600000000000025 12.599999999999996 C 5.400000000000002 10.619999999999996 6.660000000000002 8.399999999999995 8.080000000000002 5.979999999999996 L 9.880000000000003 5.979999999999996 L 6.160000000000002 12.419999999999996 L 2.700000000000002 18.439999999999998 L 4.500000000000002 18.439999999999998 C 6.960000000000002 14.099999999999998 8.500000000000002 11.539999999999997 10.780000000000001 7.539999999999997 C 10.920000000000002 7.779999999999998 17.96 19.979999999999997 18 20 L 12.6 20 z M 36.18 20 L 30.78 20 L 28.96 16.86 L 25.46 16.86 L 25.46 20 L 20.8 20 L 20.8 12.2 L 32.24 12.219999999999999 C 33.54 12.219999999999999 34.58 11.159999999999998 34.58 9.879999999999999 C 34.58 8.579999999999998 33.54 7.539999999999999 32.239999999999995 7.539999999999999 L 22.359999999999992 7.539999999999999 L 22.359999999999992 9.1 L 32.239999999999995 9.1 C 32.66 9.12 32.98 9.459999999999999 32.98 9.879999999999999 C 32.98 10.299999999999999 32.66 10.639999999999999 32.239999999999995 10.659999999999998 L 32.21999999999999 10.659999999999998 L 32.19999999999999 10.659999999999998 L 20.79999999999999 10.659999999999998 L 20.79999999999999 5.979999999999999 L 32.23999999999999 5.979999999999999 C 34.39999999999999 5.979999999999999 36.139999999999986 7.719999999999999 36.139999999999986 9.879999999999999 C 36.139999999999986 12.02 34.399999999999984 13.78 32.23999999999999 13.78 L 22.359999999999985 13.76 L 22.359999999999985 18.439999999999998 L 23.919999999999984 18.439999999999998 L 23.919999999999984 15.299999999999997 L 29.859999999999985 15.299999999999997 C 30.499999999999986 16.459999999999997 31.579999999999984 18.24 31.679999999999986 18.439999999999998 L 33.47999999999998 18.439999999999998 C 33.319999999999986 18.22 32.399999999999984 16.58 31.659999999999982 15.299999999999997 L 33.45999999999998 15.299999999999997 C 34.119999999999976 16.439999999999998 34.77999999999998 17.619999999999997 35.31999999999998 18.499999999999996 z M 43.660000000000004 20 L 38.980000000000004 20 L 38.980000000000004 5.98 L 43.660000000000004 5.98 L 43.660000000000004 16.880000000000003 L 42.1 16.880000000000003 L 42.1 7.540000000000003 L 40.54 7.540000000000003 L 40.54 18.440000000000005 L 43.66 18.440000000000005 L 43.66 20.000000000000004 z M 46.46000000000001 10.66 L 46.46000000000001 5.98 L 61.760000000000005 5.98 L 61.760000000000005 10.66 L 58.00000000000001 10.66 L 58.00000000000001 9.1 L 60.20000000000001 9.1 L 60.20000000000001 7.539999999999999 L 48.02000000000001 7.539999999999999 L 48.02000000000001 9.1 L 53.34000000000001 9.1 L 53.32000000000001 18.439999999999998 L 54.88000000000001 18.439999999999998 L 54.88000000000001 9.099999999999998 L 56.44000000000001 9.099999999999998 L 56.44000000000001 20 L 51.76000000000001 20 L 51.76000000000001 10.66 L 46.460000000000015 10.66 z M 79.86 5.98 L 79.86 10.66 L 69.24 10.66 L 69.24 12.22 L 77.11999999999999 12.22 L 77.11999999999999 13.780000000000001 L 67.67999999999999 13.780000000000001 L 67.67999999999999 9.100000000000001 L 78.3 9.100000000000001 L 78.3 7.540000000000001 L 66.12 7.540000000000001 L 66.12 18.44 L 78.30000000000001 18.44 L 78.30000000000001 16.880000000000003 L 67.68 16.880000000000003 L 67.68 15.320000000000002 L 79.86000000000001 15.320000000000002 L 79.86000000000001 20 L 64.56000000000002 20 L 64.56000000000002 5.98 L 79.86000000000001 5.98 z M 97.96 5.98 L 97.96 10.68 L 89.36 10.68 C 88.17999999999999 10.78 87.28 11.8 87.28 13 C 87.28 14.2 88.18 15.18 89.36 15.32 L 94.84 15.32 L 94.84 16.88 L 89.36 16.88 C 87.34 16.72 85.74 15.059999999999999 85.74 12.979999999999999 C 85.74 10.979999999999999 87.28 9.279999999999998 89.28 9.12 L 96.4 9.12 L 96.4 7.539999999999999 L 89.36 7.539999999999999 L 89.36 7.559999999999999 C 86.5 7.719999999999999 84.22 10.079999999999998 84.22 13 C 84.22 15.9 86.5 18.28 89.36 18.44 L 96.4 18.44 L 96.4 15.32 L 97.96000000000001 15.32 L 97.96000000000001 20 L 89.36000000000001 20 C 85.62000000000002 19.84 82.66000000000001 16.759999999999998 82.66000000000001 13 C 82.66000000000001 9.22 85.62 6.16 89.36000000000001 6 z M 111.38 10.66 L 111.38 5.98 L 116.06 5.98 L 116.06 20 L 111.38 20 L 111.38 15.34 L 102.32 15.34 L 102.32 18.44 L 103.88 18.44 L 103.88 16.880000000000003 L 105.44 16.880000000000003 L 105.44 20.000000000000004 L 100.75999999999999 20.000000000000004 L 100.75999999999999 13.760000000000003 L 112.96 13.760000000000003 L 112.96 18.440000000000005 L 114.5 18.440000000000005 L 114.5 7.5400000000000045 L 112.96 7.5400000000000045 L 112.96 12.220000000000004 L 103.88 12.220000000000004 L 103.88 7.5400000000000045 L 102.32 7.5400000000000045 L 102.32 12.220000000000004 L 100.75999999999999 12.220000000000004 L 100.75999999999999 5.980000000000004 L 105.44 5.980000000000004 L 105.44 10.660000000000004 L 111.38 10.660000000000004 z" stroke-linecap="round" />
</g>
<g transform="matrix(1.24 0 0 1.24 540 667.05)"  >
<path style="stroke: none; stroke-width: 1; stroke-dasharray: none; stroke-linecap: butt; stroke-dashoffset: 0; stroke-linejoin: miter; stroke-miterlimit: 4; fill: rgb(0,0,0); fill-rule: nonzero; opacity: 1;" vector-effect="non-scaling-stroke"  transform=" translate(-169.98, -12.41)" d="M 6.82 20.3 L 2.5600000000000005 20.300019531 C 2.3066600000000004 20.300019531 2.0933200000000003 20.213359531000002 1.9199800000000005 20.040019531 C 1.7466400000000006 19.866679530999996 1.6599800000000005 19.660019531 1.6599800000000005 19.420019530999998 L 1.6599800000000005 5.400019530999998 C 1.6599800000000005 5.160019530999998 1.7466400000000004 4.9533595309999985 1.9199800000000005 4.780019530999998 C 2.0933200000000003 4.6066795309999975 2.3066600000000004 4.520019530999998 2.5600000000000005 4.520019530999998 L 5.48 4.520019530999998 C 5.9866600000000005 4.520019530999998 6.46666 4.616679530999998 6.92 4.810019530999998 C 7.37334 5.003359530999998 7.76668 5.266699530999999 8.1 5.600039530999998 C 8.433319999999998 5.933379530999998 8.696679999999999 6.326719530999998 8.89002 6.780039530999998 C 9.08336 7.233359530999998 9.180019999999999 7.713379530999998 9.180019999999999 8.220039530999998 C 9.180019999999999 9.020039530999998 8.940019999999999 9.753339530999998 8.460019999999998 10.420039530999997 C 8.980019999999998 10.593379530999997 9.453359999999998 10.830039530999997 9.880019999999998 11.130039530999998 C 10.306679999999998 11.430039530999998 10.673339999999998 11.786699530999998 10.980019999999998 12.200039530999998 C 11.286699999999998 12.613379530999998 11.526679999999997 13.070039530999997 11.700019999999999 13.570039530999999 C 11.87336 14.070039531 11.960019999999998 14.600039530999998 11.960019999999998 15.160039530999999 C 11.960019999999998 15.866699530999998 11.826679999999998 16.533339531 11.560019999999998 17.160039531 C 11.293359999999998 17.786739531 10.926699999999999 18.333339531 10.460019999999998 18.800039531 C 9.993339999999998 19.266739531 9.44672 19.633359531 8.820019999999998 19.900039531 C 8.193319999999996 20.166719531000002 7.526719999999997 20.300039531 6.820019999999998 20.300039531 z M 5.48 6.279999999999999 L 3.4400000000000004 6.279999999999999 L 3.4400000000000004 10.139999999999999 L 5.680000000000001 10.139999999999999 C 5.89334 10.139999999999999 6.10334 10.083339999999998 6.3100000000000005 9.969999999999999 C 6.516660000000001 9.85666 6.7 9.709999999999999 6.86 9.53 C 7.0200000000000005 9.35 7.15 9.146659999999999 7.25 8.92 C 7.35 8.693340000000001 7.4 8.459999999999999 7.4 8.22 C 7.4 7.953340000000001 7.3500000000000005 7.703340000000001 7.25 7.470000000000001 C 7.1499999999999995 7.2366600000000005 7.01334 7.03 6.84 6.8500000000000005 C 6.666659999999999 6.670000000000001 6.4633199999999995 6.53 6.229979999999999 6.430000000000001 C 5.996639999999999 6.330000000000001 5.746639999999999 6.28 5.479979999999999 6.28 z M 6.82 11.92 L 3.4400000000000004 11.919960938 L 3.4400000000000004 18.519960937999997 L 6.82 18.519960937999997 C 7.28666 18.519960937999997 7.72332 18.433300938 8.13 18.259960937999995 C 8.53668 18.086620937999992 8.893320000000001 17.846620937999994 9.200000000000001 17.539960937999997 C 9.506680000000001 17.233300938 9.74666 16.876640937999998 9.920000000000002 16.469960937999996 C 10.093340000000003 16.063280937999995 10.180000000000001 15.626640937999996 10.180000000000001 15.159960937999996 C 10.180000000000001 14.693280937999996 10.090000000000002 14.259960937999995 9.910000000000002 13.859960937999995 C 9.730000000000002 13.459960937999995 9.490000000000002 13.116620937999995 9.190000000000001 12.829960937999996 C 8.89 12.543300937999996 8.53334 12.319960937999996 8.120000000000001 12.159960937999996 C 7.706660000000001 11.999960937999996 7.273320000000001 11.919960937999996 6.820000000000001 11.919960937999996 z M 39.400000000000006 20.3 C 38.56 20.3 37.7734 20.139960000000002 37.040000000000006 19.819960000000002 C 36.30660000000001 19.49996 35.66330000000001 19.06662 35.11000000000001 18.51996 C 34.556700000000006 17.973300000000002 34.120000000000005 17.32996 33.800000000000004 16.58996 C 33.480000000000004 15.849960000000003 33.32000000000001 15.059960000000002 33.32000000000001 14.21996 L 33.32000000000001 5.39996 C 33.32000000000001 5.15996 33.40666000000001 4.9533000000000005 33.580000000000005 4.77996 C 33.75334 4.6066199999999995 33.966680000000004 4.51996 34.220020000000005 4.51996 C 34.46002000000001 4.51996 34.66668000000001 4.60662 34.84002 4.77996 C 35.01336 4.9533 35.10002 5.15996 35.10002 5.39996 L 35.10002 14.21996 C 35.10002 14.81996 35.21336 15.37996 35.440020000000004 15.89996 C 35.66668000000001 16.41996 35.97334000000001 16.8733 36.36000000000001 17.25996 C 36.746660000000006 17.64662 37.203320000000005 17.95328 37.730000000000004 18.17994 C 38.25668 18.406599999999997 38.813300000000005 18.51994 39.400000000000006 18.51994 C 40.00000000000001 18.51994 40.56 18.406599999999997 41.080000000000005 18.17994 C 41.60000000000001 17.95328 42.05666000000001 17.64662 42.45 17.25996 C 42.84334 16.8733 43.15334 16.41664 43.38 15.889959999999999 C 43.606660000000005 15.363279999999996 43.720000000000006 14.806659999999999 43.720000000000006 14.219959999999999 L 43.720000000000006 5.399959999999998 C 43.720000000000006 5.159959999999998 43.80666000000001 4.953299999999999 43.980000000000004 4.779959999999998 C 44.15334 4.606619999999998 44.36000000000001 4.519959999999998 44.6 4.519959999999998 C 44.85334 4.519959999999998 45.06668 4.606619999999999 45.24002 4.779959999999998 C 45.413360000000004 4.953299999999998 45.50002 5.159959999999998 45.50002 5.399959999999998 L 45.50002 14.219959999999999 C 45.50002 15.059959999999998 45.34002 15.84996 45.02002 16.589959999999998 C 44.70002 17.329959999999996 44.263360000000006 17.973259999999996 43.71002 18.519959999999998 C 43.156679999999994 19.06666 42.51002 19.499959999999998 41.77002 19.81996 C 41.03002000000001 20.13996 40.24002 20.29996 39.400020000000005 20.29996 z M 68.64000000000001 20.3 C 68.38666000000002 20.3 68.17332000000002 20.213340000000002 67.99998000000001 20.04 C 67.82664 19.866659999999996 67.73998 19.66 67.73998 19.419999999999998 L 67.73998 5.399999999999999 C 67.73998 5.159999999999998 67.82664 4.953339999999999 67.99998000000001 4.7799999999999985 C 68.17332000000002 4.606659999999998 68.38666 4.519999999999999 68.64000000000001 4.519999999999999 C 68.88000000000001 4.519999999999999 69.08666000000001 4.606659999999999 69.26000000000002 4.7799999999999985 C 69.43334000000003 4.953339999999998 69.52000000000002 5.159999999999998 69.52000000000002 5.399999999999999 L 69.52000000000002 19.419999999999998 C 69.52000000000002 19.659999999999997 69.43334000000003 19.86666 69.26000000000002 20.04 C 69.08666000000001 20.21334 68.88000000000002 20.3 68.64000000000001 20.3 z M 97.98000000000002 20.3 L 92.64000000000001 20.3 C 92.40000000000002 20.3 92.19334000000002 20.213340000000002 92.02000000000001 20.04 C 91.84666 19.866659999999996 91.76 19.66 91.76 19.419999999999998 L 91.76 5.399999999999999 C 91.76 5.146659999999999 91.84666 4.936659999999999 92.02000000000001 4.769999999999999 C 92.19334000000002 4.603339999999998 92.4 4.519999999999999 92.64000000000001 4.519999999999999 C 92.89334000000001 4.519999999999999 93.10334000000002 4.603339999999998 93.27000000000001 4.769999999999999 C 93.43666 4.936659999999999 93.52000000000001 5.146659999999999 93.52000000000001 5.399999999999999 L 93.52000000000001 18.54 L 97.98 18.54 C 98.23334 18.54 98.44668 18.626659999999998 98.62002000000001 18.8 C 98.79336000000002 18.973340000000004 98.88002000000002 19.18 98.88002000000002 19.42 C 98.88002000000002 19.660000000000004 98.79336000000002 19.866660000000003 98.62002000000001 20.040000000000003 C 98.44668 20.213340000000002 98.23334000000001 20.300000000000004 97.98 20.300000000000004 z M 125.16000000000001 20.3 L 120.24000000000001 20.299960938 C 120.08000000000001 20.299960938 119.92666000000001 20.253300938000002 119.78000000000002 20.159960938 C 119.63334000000002 20.066620938 119.52668000000001 19.946620938000002 119.46002000000001 19.799960938 C 119.34002000000001 19.586620938000003 119.32668000000001 19.346620938 119.42002000000001 19.079960938000003 L 119.42002000000001 5.399960938000003 C 119.42002000000001 5.159960938000003 119.50668 4.9533009380000035 119.68002000000001 4.779960938000003 C 119.85336000000002 4.6066209380000025 120.06670000000001 4.519960938000003 120.32004000000002 4.519960938000003 L 125.14004000000003 4.519960938000003 C 126.19334000000002 4.519960938000003 127.15344000000003 4.746620938000003 128.02004000000002 5.199960938000003 C 128.88664 5.653300938000003 129.62674 6.246660938000003 130.24004000000002 6.979960938000003 C 130.85334000000003 7.713260938000003 131.32674000000003 8.546660938000002 131.66004 9.479960938000003 C 131.99334 10.413260938000004 132.16004 11.359960938000004 132.16004 12.319960938000003 C 132.16004 13.506660938000003 131.9567 14.589960938000003 131.55004 15.569960938000003 C 131.14337999999998 16.549960938000005 130.61004 17.389960938 129.95004 18.089960938000004 C 129.29004 18.789960938000007 128.54004 19.333260938000006 127.70004 19.719960938000003 C 126.86004 20.106660938 126.01334 20.299960938 125.16004 20.299960938 z M 125.14000000000001 6.279999999999999 L 121.20000000000002 6.279921873999999 L 121.20000000000002 18.539921874 L 125.16000000000001 18.539921874 C 125.92000000000002 18.539921874 126.61670000000001 18.356581874 127.25000000000001 17.989921874 C 127.88330000000002 17.623261874 128.4333 17.146601874 128.9 16.559921874 C 129.3667 15.973241874 129.73000000000002 15.306621874000001 129.99 14.559921874 C 130.25 13.813221874 130.38 13.066621874 130.38 12.319921874 C 130.38 11.559921874 130.25334 10.816621874 130 10.089921874 C 129.74666 9.363221873999999 129.39 8.716621874 128.93 8.149921874 C 128.47000000000003 7.583221874000001 127.9167 7.129921874000001 127.27000000000001 6.789921874 C 126.62330000000001 6.449921873999999 125.9133 6.279921874 125.14000000000001 6.279921874 z M 185.06 20.3 L 180.8 20.300019531 C 180.54666 20.300019531 180.33332000000001 20.213359531000002 180.15998000000002 20.040019531 C 179.98664000000002 19.866679530999996 179.89998000000003 19.660019531 179.89998000000003 19.420019530999998 L 179.89998000000003 5.400019530999998 C 179.89998000000003 5.160019530999998 179.98664000000002 4.9533595309999985 180.15998000000002 4.780019530999998 C 180.33332000000001 4.6066795309999975 180.54666000000003 4.520019530999998 180.8 4.520019530999998 L 183.72 4.520019530999998 C 184.22666 4.520019530999998 184.70666 4.616679530999998 185.16 4.810019530999998 C 185.61334 5.003359530999998 186.00668 5.266699530999999 186.34 5.600039530999998 C 186.67332000000002 5.933379530999998 186.93668 6.326719530999998 187.13002 6.780039530999998 C 187.32336 7.233359530999998 187.42002 7.713379530999998 187.42002 8.220039530999998 C 187.42002 9.020039530999998 187.18001999999998 9.753339530999998 186.70002 10.420039530999997 C 187.22002 10.593379530999997 187.69335999999998 10.830039530999997 188.12001999999998 11.130039530999998 C 188.54667999999998 11.430039530999998 188.91333999999998 11.786699530999998 189.22001999999998 12.200039530999998 C 189.52669999999998 12.613379530999998 189.76667999999998 13.070039530999997 189.94001999999998 13.570039530999999 C 190.11335999999997 14.070039531 190.20001999999997 14.600039530999998 190.20001999999997 15.160039530999999 C 190.20001999999997 15.866699530999998 190.06667999999996 16.533339531 189.80001999999996 17.160039531 C 189.53335999999996 17.786739531 189.16669999999996 18.333339531 188.70001999999997 18.800039531 C 188.23333999999997 19.266739531 187.68671999999998 19.633359531 187.06001999999998 19.900039531 C 186.43331999999998 20.166719531000002 185.76672 20.300039531 185.06001999999998 20.300039531 z M 183.72 6.279999999999999 L 181.68 6.279999999999999 L 181.68 10.139999999999999 L 183.92000000000002 10.139999999999999 C 184.13334 10.139999999999999 184.34334 10.083339999999998 184.55 9.969999999999999 C 184.75666 9.85666 184.94 9.709999999999999 185.10000000000002 9.53 C 185.26000000000005 9.35 185.39000000000001 9.146659999999999 185.49 8.92 C 185.59 8.693340000000001 185.64000000000001 8.459999999999999 185.64000000000001 8.22 C 185.64000000000001 7.953340000000001 185.59 7.703340000000001 185.49 7.470000000000001 C 185.39000000000001 7.2366600000000005 185.25334 7.03 185.08 6.8500000000000005 C 184.90666000000002 6.670000000000001 184.70332000000002 6.53 184.46998000000002 6.430000000000001 C 184.23664000000002 6.330000000000001 183.98664000000002 6.28 183.71998000000002 6.28 z M 185.06 11.92 L 181.68 11.919960938 L 181.68 18.519960937999997 L 185.06 18.519960937999997 C 185.52666 18.519960937999997 185.96332 18.433300938 186.37 18.259960937999995 C 186.77668 18.086620937999992 187.13332 17.846620937999994 187.44 17.539960937999997 C 187.74668 17.233300938 187.98666 16.876640937999998 188.16 16.469960937999996 C 188.33334 16.063280937999995 188.42 15.626640937999996 188.42 15.159960937999996 C 188.42 14.693280937999996 188.32999999999998 14.259960937999995 188.14999999999998 13.859960937999995 C 187.96999999999997 13.459960937999995 187.73 13.116620937999995 187.42999999999998 12.829960937999996 C 187.12999999999997 12.543300937999996 186.77334 12.319960937999996 186.35999999999999 12.159960937999996 C 185.94665999999998 11.999960937999996 185.51332 11.919960937999996 185.05999999999997 11.919960937999996 z M 219.34 20.3 L 212.46 20.299980469 C 212.20666 20.299980469 211.99332 20.213320469000003 211.81998000000002 20.039980469 C 211.64664000000002 19.866640468999996 211.55998000000002 19.659980469 211.55998000000002 19.419980469 L 211.55998000000002 19.379980469 L 211.55998000000002 19.339980469 L 211.55998000000002 5.399980469000001 C 211.55998000000002 5.159980469000001 211.64664000000002 4.953320469000001 211.81998000000002 4.779980469000001 C 211.99332 4.606640469 212.20666000000003 4.519980469000001 212.46 4.519980469000001 L 219.34 4.519980469000001 C 219.59334 4.519980469000001 219.80668 4.606640469000001 219.98002 4.779980469000001 C 220.15336 4.953320469 220.24002 5.159980469000001 220.24002 5.399980469000001 C 220.24002 5.6533204690000005 220.15336 5.8633204690000005 219.98002 6.029980469000001 C 219.80668 6.196640469000001 219.59333999999998 6.279980469000001 219.34 6.279980469000001 L 213.34 6.279980469000001 L 213.34 11.379980469 L 218.4 11.379980469 C 218.64000000000001 11.379980469 218.84666 11.463320469 219.02 11.629980469 C 219.19334 11.796640469 219.28 12.006640468999999 219.28 12.259980469 C 219.28 12.499980469 219.19334 12.706640469 219.02 12.879980469 C 218.84666 13.053320468999999 218.64000000000001 13.139980469 218.4 13.139980469 L 213.34 13.139980469 L 213.34 18.519980469 L 219.34 18.519980469 C 219.59334 18.519980469 219.80668 18.606640469 219.98002 18.779980469 C 220.15336 18.953320469000005 220.24002 19.166660469 220.24002 19.420000469 C 220.24002 19.660000469 220.15336 19.866660469000003 219.98002 20.040000469000002 C 219.80668 20.213340469000002 219.59333999999998 20.300000469000004 219.34 20.300000469000004 z M 248.92 6.279999999999999 L 245.67999999999998 6.279999999999999 L 245.67999999999998 19.42 C 245.67999999999998 19.66 245.59333999999998 19.866660000000003 245.42 20.040000000000003 C 245.24666 20.213340000000002 245.04 20.300000000000004 244.79999999999998 20.300000000000004 C 244.54665999999997 20.300000000000004 244.33332 20.213340000000006 244.15998 20.040000000000003 C 243.98664 19.86666 243.89998 19.660000000000004 243.89998 19.42 L 243.89998 6.280000000000001 L 240.65998 6.280000000000001 C 240.41997999999998 6.280000000000001 240.21331999999998 6.196660000000001 240.03997999999999 6.030000000000001 C 239.86664 5.863340000000001 239.77998 5.653340000000001 239.77998 5.400000000000001 C 239.77998 5.160000000000001 239.86664 4.953340000000002 240.03997999999999 4.780000000000001 C 240.21331999999998 4.606660000000001 240.41997999999998 4.520000000000001 240.65998 4.520000000000001 L 248.91997999999998 4.520000000000001 C 249.15998 4.520000000000001 249.36664 4.6066600000000015 249.53997999999999 4.780000000000001 C 249.71331999999998 4.953340000000001 249.79997999999998 5.160000000000001 249.79997999999998 5.400000000000001 C 249.79997999999998 5.653340000000001 249.71331999999998 5.863340000000001 249.53997999999999 6.030000000000001 C 249.36664 6.196660000000001 249.15998 6.280000000000001 248.91997999999998 6.280000000000001 z M 278.09999999999997 6.279999999999999 L 274.85999999999996 6.279999999999999 L 274.85999999999996 19.42 C 274.85999999999996 19.66 274.77333999999996 19.866660000000003 274.59999999999997 20.040000000000003 C 274.42665999999997 20.213340000000002 274.21999999999997 20.300000000000004 273.97999999999996 20.300000000000004 C 273.72666 20.300000000000004 273.51331999999996 20.213340000000006 273.33997999999997 20.040000000000003 C 273.16664 19.86666 273.07998 19.660000000000004 273.07998 19.42 L 273.07998 6.280000000000001 L 269.83997999999997 6.280000000000001 C 269.59997999999996 6.280000000000001 269.39331999999996 6.196660000000001 269.21997999999996 6.030000000000001 C 269.04663999999997 5.863340000000001 268.95998 5.653340000000001 268.95998 5.400000000000001 C 268.95998 5.160000000000001 269.04663999999997 4.953340000000002 269.21997999999996 4.780000000000001 C 269.39331999999996 4.606660000000001 269.59997999999996 4.520000000000001 269.83997999999997 4.520000000000001 L 278.09997999999996 4.520000000000001 C 278.33997999999997 4.520000000000001 278.54663999999997 4.6066600000000015 278.71997999999996 4.780000000000001 C 278.89331999999996 4.953340000000001 278.97997999999995 5.160000000000001 278.97997999999995 5.400000000000001 C 278.97997999999995 5.653340000000001 278.89331999999996 5.863340000000001 278.71997999999996 6.030000000000001 C 278.54663999999997 6.196660000000001 278.33997999999997 6.280000000000001 278.09997999999996 6.280000000000001 z M 307.46 20.3 L 300.58 20.299980469 C 300.32666 20.299980469 300.11332 20.213320469000003 299.93998 20.039980469 C 299.76664 19.866640468999996 299.67998 19.659980469 299.67998 19.419980469 L 299.67998 19.379980469 L 299.67998 19.339980469 L 299.67998 5.399980469000001 C 299.67998 5.159980469000001 299.76664 4.953320469000001 299.93998 4.779980469000001 C 300.11332 4.606640469 300.32666 4.519980469000001 300.58 4.519980469000001 L 307.46 4.519980469000001 C 307.71333999999996 4.519980469000001 307.92668 4.606640469000001 308.10002 4.779980469000001 C 308.27335999999997 4.953320469 308.36001999999996 5.159980469000001 308.36001999999996 5.399980469000001 C 308.36001999999996 5.6533204690000005 308.27335999999997 5.8633204690000005 308.10002 6.029980469000001 C 307.92668 6.196640469000001 307.71333999999996 6.279980469000001 307.46 6.279980469000001 L 301.46 6.279980469000001 L 301.46 11.379980469 L 306.52 11.379980469 C 306.76 11.379980469 306.96666 11.463320469 307.14 11.629980469 C 307.31334 11.796640469 307.4 12.006640468999999 307.4 12.259980469 C 307.4 12.499980469 307.31334 12.706640469 307.14 12.879980469 C 306.96666 13.053320468999999 306.76 13.139980469 306.52 13.139980469 L 301.46 13.139980469 L 301.46 18.519980469 L 307.46 18.519980469 C 307.71333999999996 18.519980469 307.92668 18.606640469 308.10002 18.779980469 C 308.27335999999997 18.953320469000005 308.36001999999996 19.166660469 308.36001999999996 19.420000469 C 308.36001999999996 19.660000469 308.27335999999997 19.866660469000003 308.10002 20.040000469000002 C 307.92668 20.213340469000002 307.71333999999996 20.300000469000004 307.46 20.300000469000004 z M 333.85999999999996 13.36 L 333.61999999999995 13.359960937999999 L 333.87999999999994 12.899960937999998 L 337.49999999999994 18.959960938 C 337.5799999999999 19.106620938 337.61999999999995 19.259960938 337.61999999999995 19.419960938 C 337.61999999999995 19.659960937999998 337.53333999999995 19.866620938 337.35999999999996 20.039960938 C 337.18665999999996 20.213300938 336.97999999999996 20.299960938 336.73999999999995 20.299960938 C 336.5799999999999 20.299960938 336.42999999999995 20.259960938000003 336.28999999999996 20.179960938 C 336.15 20.099960938 336.03999999999996 19.993300938 335.96 19.859960938 L 332.08 13.359960938 L 331.21999999999997 13.359960938 L 331.21999999999997 19.419960938 C 331.21999999999997 19.659960937999998 331.13334 19.866620938 330.96 20.039960938 C 330.78666 20.213300938 330.58 20.299960938 330.34 20.299960938 C 330.08666 20.299960938 329.87332 20.213300938000003 329.69998 20.039960938 C 329.52664 19.866620937999997 329.43998 19.659960938 329.43998 19.419960938 L 329.43998 5.3999609379999995 C 329.43998 5.159960937999999 329.52664 4.953300938 329.69998 4.779960937999999 C 329.87332 4.606620937999999 330.08666 4.519960938 330.34 4.519960938 L 333.85999999999996 4.519960938 C 334.47333999999995 4.519960938 335.04999999999995 4.636620938 335.59 4.869960937999999 C 336.13 5.1033009379999985 336.59999999999997 5.419960937999999 337 5.8199609379999995 C 337.40000000000003 6.219960938 337.71666 6.686620937999999 337.95 7.219960938 C 338.18334 7.753300938000001 338.3 8.326660938 338.3 8.939960938 C 338.3 9.553260938000001 338.18334 10.126660938 337.95 10.659960938000001 C 337.71666 11.193260938000002 337.4 11.659960938000001 337 12.059960938000001 C 336.6 12.459960938000002 336.13 12.776620938 335.59 13.009960938 C 335.04999999999995 13.243300938 334.4733 13.359960938 333.85999999999996 13.359960938 z M 333.85999999999996 6.279999999999999 L 331.21999999999997 6.279999999999999 L 331.21999999999997 11.579999999999998 L 333.85999999999996 11.579999999999998 C 334.21999999999997 11.579999999999998 334.56334 11.509999999999998 334.88999999999993 11.369999999999997 C 335.2166599999999 11.229999999999997 335.49999999999994 11.039999999999997 335.73999999999995 10.799999999999997 C 335.97999999999996 10.559999999999997 336.16999999999996 10.279999999999998 336.30999999999995 9.959999999999997 C 336.44999999999993 9.639999999999997 336.5199999999999 9.299999999999997 336.5199999999999 8.939999999999998 C 336.5199999999999 8.579999999999998 336.44999999999993 8.236659999999997 336.30999999999995 7.9099999999999975 C 336.16999999999996 7.583339999999998 335.97999999999996 7.299999999999997 335.73999999999995 7.059999999999998 C 335.49999999999994 6.8199999999999985 335.21665999999993 6.629999999999998 334.88999999999993 6.4899999999999975 C 334.5633399999999 6.349999999999997 334.2199999999999 6.279999999999998 333.85999999999996 6.279999999999998 z" stroke-linecap="round" />
</g>
<g transform="matrix(1 0 0 1 540.5 540.5)" style="" id="5ec807be-781c-4e11-9974-20cdf4c80fe3"  >
		<text xml:space="preserve" font-family="Lato" font-size="40" font-style="normal" font-weight="400" style="stroke: none; stroke-width: 1; stroke-dasharray: none; stroke-linecap: butt; stroke-dashoffset: 0; stroke-linejoin: miter; stroke-miterlimit: 4; fill: rgb(0,0,0); fill-rule: nonzero; opacity: 1; white-space: pre;" ><tspan x="-88.06" y="12.57" >MADE BY</tspan></text>
</g>
</svg>