<?xml version="1.0" standalone="no"?>
<!DOCTYPE svg PUBLIC "-//W3C//DTD SVG 20010904//EN"
 "http://www.w3.org/TR/2001/REC-SVG-20010904/DTD/svg10.dtd">
<svg version="1.0" xmlns="http://www.w3.org/2000/svg"
 width="512.000000pt" height="512.000000pt" viewBox="0 0 512.000000 512.000000"
 preserveAspectRatio="xMidYMid meet">
<metadata>
Created by potrace 1.16, written by Peter Selinger 2001-2019
</metadata>
<g transform="translate(0.000000,512.000000) scale(0.100000,-0.100000)"
fill="#000000" stroke="none">
<path d="M4879 4483 c-13 -16 -12 -17 4 -4 16 13 21 21 13 21 -2 0 -10 -8 -17
-17z"/>
<path d="M4570 4163 l-65 -68 68 65 c62 60 72 70 64 70 -1 0 -32 -30 -67 -67z"/>
<path d="M2119 4203 c-13 -16 -12 -17 4 -4 9 7 17 15 17 17 0 8 -8 3 -21 -13z"/>
<path d="M2002 4049 c-56 -74 -170 -224 -254 -334 -178 -235 -458 -588 -606
-765 -58 -69 -114 -136 -126 -150 -11 -14 15 12 59 57 174 179 318 334 363
391 26 33 97 119 157 190 61 71 119 142 130 157 11 16 36 49 55 74 20 25 53
72 73 104 21 31 41 57 45 57 4 0 23 25 41 55 19 30 39 55 43 55 4 0 8 5 8 10
0 6 18 38 40 71 22 33 40 65 40 70 0 5 10 23 21 38 12 16 20 34 17 41 -2 7
-50 -48 -106 -121z"/>
<path d="M4401 3997 c-41 -39 -214 -214 -385 -387 -171 -173 -252 -259 -181
-190 208 200 654 650 644 650 -2 0 -37 -33 -78 -73z"/>
<path d="M2797 2983 c-1112 -1119 -1108 -1114 -1307 -1358 -85 -104 -183 -222
-217 -261 -34 -39 -56 -71 -50 -71 7 0 21 -1 31 -1 19 -2 19 -2 0 -24 -29 -35
38 24 138 121 48 47 84 89 81 94 -3 6 -2 7 4 4 10 -6 121 99 115 109 -2 3 0 9
4 12 4 4 4 0 0 -8 -9 -18 126 122 392 405 108 116 298 318 423 450 124 132
248 265 275 296 134 153 243 283 302 361 24 31 62 77 85 102 59 62 276 293
312 331 17 17 75 78 129 136 55 57 131 137 170 177 39 39 67 72 63 72 -4 0
-432 -426 -950 -947z m-1157 -1337 c0 -2 -8 -10 -17 -17 -16 -13 -17 -12 -4 4
13 16 21 21 21 13z"/>
<path d="M3639 3243 c-13 -16 -12 -17 4 -4 9 7 17 15 17 17 0 8 -8 3 -21 -13z"/>
<path d="M969 2743 c-13 -16 -12 -17 4 -4 9 7 17 15 17 17 0 8 -8 3 -21 -13z"/>
<path d="M919 2683 c-13 -16 -12 -17 4 -4 9 7 17 15 17 17 0 8 -8 3 -21 -13z"/>
<path d="M859 2613 l-24 -28 28 24 c25 23 32 31 24 31 -2 0 -14 -12 -28 -27z"/>
<path d="M809 2553 l-24 -28 28 24 c25 23 32 31 24 31 -2 0 -14 -12 -28 -27z"/>
<path d="M739 2473 c-13 -16 -12 -17 4 -4 9 7 17 15 17 17 0 8 -8 3 -21 -13z"/>
<path d="M674 2398 l-19 -23 23 19 c21 18 27 26 19 26 -2 0 -12 -10 -23 -22z"/>
<path d="M2809 2323 c-13 -16 -12 -17 4 -4 16 13 21 21 13 21 -2 0 -10 -8 -17
-17z"/>
<path d="M594 2308 l-19 -23 23 19 c21 18 27 26 19 26 -2 0 -12 -10 -23 -22z"/>
<path d="M529 2233 c-13 -16 -12 -17 4 -4 9 7 17 15 17 17 0 8 -8 3 -21 -13z"/>
<path d="M479 2173 c-13 -16 -12 -17 4 -4 9 7 17 15 17 17 0 8 -8 3 -21 -13z"/>
<path d="M2599 2153 l-34 -38 35 30 c19 16 39 33 45 37 5 5 5 8 -1 8 -6 0 -26
-17 -45 -37z"/>
<path d="M414 2098 l-19 -23 23 19 c21 18 27 26 19 26 -2 0 -12 -10 -23 -22z"/>
<path d="M2500 2063 l-55 -58 58 55 c31 30 57 56 57 57 0 8 -10 -1 -60 -54z"/>
<path d="M179 1833 c-13 -16 -12 -17 4 -4 9 7 17 15 17 17 0 8 -8 3 -21 -13z"/>
<path d="M1108 1118 c-132 -142 -182 -198 -488 -553 -123 -143 -253 -293 -288
-333 -35 -39 -62 -72 -59 -72 4 0 185 199 263 289 16 19 41 46 55 61 14 15 36
43 49 61 30 43 260 305 448 512 79 86 141 157 139 157 -3 0 -57 -55 -119 -122z"/>
<path d="M224 109 c-16 -16 -22 -28 -14 -24 13 5 56 55 47 55 -2 0 -16 -14
-33 -31z"/>
<path d="M159 33 l-24 -28 28 24 c15 14 27 26 27 28 0 8 -8 1 -31 -24z"/>
</g>
</svg>